# xmcd
#
# Track frame offsets:
#	150
#	33452
#	56539
#	93120
#	136050
#	177585
#	207284
#	240933
#
# Disc length: 3646 seconds
#
# Revision: 0
# Processed by: cddbd v1.5.1PL2 Copyright (c) Steve Scherf et al.
# Submitted via: dBpowerAMP V4.0
#
DISCID=610e3c08
DTITLE=Ustad Ahmed husain - Bhawna
DYEAR=2005
DGENRE=Country
TTITLE0=Mangal Data Buddhi Vidhata
TTITLE1=Jai Sarswati Varde Maharani
TTITLE2=Jai Shankar chandra Bal
TTITLE3=Asur harni Dusht Dalni
TTITLE4=Subhaan teri qudrat ke kurban
TTITLE5=Krishna janam bhayo aaj
TTITLE6=Kiya kiya kahun mein Krishna
TTITLE7=Kaisey jaun main pania bharan ko sakhi
EXTD=
EXTT0=
EXTT1=
EXTT2=
EXTT3=
EXTT4=
EXTT5=
EXTT6=
EXTT7=
PLAYORDER=
